<?xml version="1.0" encoding="utf-8"?>
<svg version="1.1" id="Layer_1" xmlns="http://www.w3.org/2000/svg" xmlns:xlink="http://www.w3.org/1999/xlink" x="0px" y="0px"
	 viewBox="0 0 500 293.7" xml:space="preserve">
<style type="text/css">
	.st0{fill:none;stroke:currentColor;stroke-width:4.5;stroke-linejoin:round;}
</style>
<title>Charges</title>
<path class="st0" d="M109.3,37.4c0,0,20.7,9.2,28.7,11.9s39.4,11.1,42.5,11.1S159,48.1,147.9,44.2S114.6,35.4,109.3,37.4z"/>
<path class="st0" d="M109.3,37.4c0,0-12.2,6.5-13.4,13s2.7,19.9,2.7,19.9s23.7,13,32.9,15.3s36.3,8.8,38.6,8s9.6-5.7,12.2-11.1
	s-1.9-22.2-1.9-22.2"/>
<path class="st0" d="M98.6,70.3c0,0-5,1.1-5,3.8c0.2,2.4,0.7,4.7,1.5,6.9c0,0,21.4,11.9,32.9,14.5s37.9,9.9,40.6,7.3
	s1.5-9.2,1.5-9.2"/>
<path class="st0" d="M95.1,81l-13.8,47.8c0,0,16.4,14.9,30.2,18.4s36.7,5.7,38.3,5.4s14.9-48.6,14.9-48.6"/>
<path class="st0" d="M162.1,114.3c0,0,18.4,6.5,23.3,6.5s20.7-1.9,22.6-0.4c2.4,2.3,4.7,4.7,6.9,7.3c0,0,6.9-3.1,9.2-1.9
	s5.7,5,5.7,5s6.9-1.1,8.8-0.4s13.4,11.5,24.1,16.1c10.7,4.6,162.2,43.6,169.5,46.6s42.9,27.2,45.1,29.8s0.4,8.4-1.1,9.2
	s-41.7,3.4-55.1-0.4s-153-58.1-164.1-60.1s-26.8,0-30.2-0.4s-6.9-6.1-6.9-6.1s-6.9,3.1-9.2,1.5s-6.1-6.9-6.1-6.9s-9.9,3.7-11.5,1.5
	c-9.9-13.4-38.3-21.4-38.3-21.4"/>
<path class="st0" d="M81.4,128.8c0,0-6.1,3.4-6.1,5s-1.2,5.7,0,6.5s27.2,15.7,38.3,17.6s34,5.4,35.6,4.6s4.2-4.2,3.4-6.1
	c-0.7-1.4-1.6-2.7-2.7-3.8"/>
<path class="st0" d="M214.9,127.6c0,0-9.3,27.9-9.7,32.9"/>
<path class="st0" d="M229.8,130.7c0,0-7.6,30.2-9.9,34.4"/>
<path class="st0" d="M74.6,140c0,0-10.1,3.6-11.7,13.3s1.4,17.9,6.2,21.6S99.8,193,126.2,195c17.5,1.8,23.4-9.7,24.6-14.1
	s2.4-13.4-1.8-18.4"/>
<path class="st0" d="M89.7,185.4c0,0-38.9,3.5-48.8,11.2s-15.7,15.7-18.5,23.6c-0.6,9.9-0.2,20.5-0.2,20.5s13.8,14.1,106.5,15.2
	c92.7,1.1,110.1-9.4,112.5-15.6c1.6-4.2,0.5-20.5,0.5-20.5s-5.3-16.4-15.4-22.8s-52.6-13.3-76.6-12.9"/>
<path class="st0" d="M43.1,195.4c20.9,7.6,53,11.3,82,10.7s81.9-2.1,94.8-10.9"/>
</svg>
