<?xml version="1.0" encoding="utf-8"?>
<svg version="1.1" id="Layer_1" xmlns="http://www.w3.org/2000/svg" xmlns:xlink="http://www.w3.org/1999/xlink" x="0px" y="0px"
	 viewBox="0 0 500 365.4" xml:space="preserve">
<style type="text/css">
	.st0{fill:none;stroke:currentColor;stroke-width:4.5;stroke-linejoin:round;}
</style>
<title>Place of prosecution</title>
<g id="htZyJb">
	<path class="st0" d="M19.1,126.6c0.6-1.1,1.2-2.1,1.8-3.2c3.1-5,5.6-10,4.4-16.3c-0.6-3,0-6.1,1.5-8.8c6.3-9.4,10.5-19.7,13.6-30.4
		c1.7-5.6,3.5-11.2,2.4-17.2c-0.5-2.8-0.5-5.6-0.2-8.3c0.2-2.5,1.4-3.3,3.4-1.7c4.5,3.5,10.8,4.9,13.5,5.7c0.1-2.2,0.2-4.4,0.1-6.6
		c-0.1-2.2,0.5-2.6,2.4-2.1c3.2,0.8,6.5,1.6,9.7,2.4C102.2,48,133,54.1,164,58.6c19.4,2.7,38.8,4.6,58.3,5.4
		c12.3,0.5,24.6,1.1,36.8,0.7c1.4,0,3,0.2,3.6-1.7c0.3-1.1,0.3-2.4,1.9-2.3s2,1.6,2.4,2.9c1.1,3.7,5,6.4,8.7,5.5
		c2.2-0.6,4.5-0.3,6.5,0.7c2.6,1.2,5.6,1.2,7.9,3.4c0.8,0.5,1.7,0.6,2.6,0.3c3.3-1.4,13.2-0.3,13.5,1.4s-1.7,2.1-2.9,2.8
		c-0.3,0.2-0.6,0.3-0.9,0.4c-5.9,1.3-8.6,6.2-12.1,10.8c2.5,0.2,3.9-1.2,5.7-1.8c1-0.3,2.7-0.9,2.4,0.9c-0.5,3.4,2,2.4,3,1.9
		c4.2-2.2,9.1-3.2,12.2-7.4c1.3-1.8,5.9-2.9,8.4,3.7c0.1,0.4,2.7,4.9,8.7,2.3c3-1.3,6.2-3,9.1-4.4c10.6-5,12,3.4,12,4.8
		c0,1.6-1.9,2.9-3.4,3.1c-2.4,0.2-5.9,0.7-8.3,0.9c-6.6,0.4-14.8,6.8-16.1,16.4c-0.2,5.6,0.9,10.4,0.7,16.5
		c-0.2,5.2,0.3,10.3,3.1,14.8c2.4,3.9,4.4,4,6.9,0.1c3.1-4.9,3.7-10.2,0.9-15.3c-1.7-3-1.4-5.9-1.5-9c-0.2-8.3,8.2-16.7,13.4-18.5
		c2.6-0.9,8.2-0.2,9.7,3.1c2,4.2,1.4,9.1-0.9,13.6c-0.7,0.9-0.6,2.2,0.3,3c0.9,0.5,2.4,0.6,2.9,0s0.7-1.1,1.1-1.7
		c2.1-2.8,3.7-2.9,5.7,0c2.5,3.5,2.1,6.6,2.5,10.7c0.2,1.4-0.4,2.9-1.6,3.7c-2.3,2-3.5,5-3.4,8c0,1.9,5.4,3.9,7.9,2.8
		c9.2-4.2,17.6-9.7,24.1-17.6c0.7-0.7,0.9-1.8,0.5-2.8c-1.8-4.7-1.7-4.9,3.3-5.9c1.2-0.2,2.4-0.3,3.6-0.5c3.4-0.6,6.9-0.5,10.1-2.2
		c2.1-1.1,4.4-3,3-5.2c-2.5-4-0.6-6.2,2-8.7c0.8-1,1.4-2,1.8-3.2c1.5-3.3,4.1-4.5,7.5-5.3c8.2-2,16.8-2,23.7-8.5
		c3.4-3.2,4.9-6.4,4.7-10.4c-0.2-5.4,0.9-10.7,3.2-15.6c2.7-7.8,11.9-5.9,13.9,1.5c0.9,3.3,2.2,11.2,5.1,13.5c2.1,1.6,4.3,3,6.6,4.4
		c2.2,1.3-1.3,6.7-4.1,8.9c-2.2,1.7-5.8,5.9-8.1,7.4c-8.7,5.9-9.1,6.9-9.5,17.2c-0.2,4.2-0.2,3,2,5.6c0.5,0.5,1.3,0.6,1.9,0.1
		c0.6-0.4,1.2-2.1,2.5-2.3c1.8-0.4,2.9,1.6,3.4,2.2c1.2,1.5,0.9,3.6-0.6,4.8c-0.2,0.1-0.3,0.2-0.5,0.3c-6,4-18.8,9.6-21.5,10.9
		c-2.8,1.2-5,3.4-6.4,6.2c-2,4.4,0.8,12.5-2.6,17.9c-2.2,3.1,0.7,8.5,1.5,13.8c2.2,8.3,2.1,11.9-1.4,9.9c-2.1-1.2-6.1-7.1-7.8-8.9
		c-1.3-1.6-4.8-1.8-5.7,0.3c-0.7,2.9,2.6,9.3,5.2,12.2c2.3,2.6,4.3,5.5,5.9,8.6c3.5,6.5,3.3,7.9-2.8,11.8c-1,0.6-1.4,2-1.7,2.9
		c-0.6,1.8-1.4,4.8-4.1,6.8c-2.7,1.3-5.1,3.1-5.7,6.2c-0.2,1.7-1.5,3-3.2,3.3c-2.9,0.7-5.4,2.3-5.9,5.3c-0.8,5.8-5.2,8.9-8.7,12.6
		c-5,5.1-8.8,10.6-8.6,18.1c0.2,9.7,4.5,17.6,10.8,24.6c0.8,0.9,2.2,1.6,1.9,3c-0.6,2.1,0.6,3.4,1.5,4.9c3,4.9,5.7,9.8,6.9,15.5
		c0.9,4.1,0.3,8.2,0.5,12.3c0.1,3.7-2.7,12.5-5.7,10.6c-1.1-0.8-4.1-5.6-5-8.8c-0.4-1.5-1.4-3.4-2.8-3.5c-4.8-0.3-6.3-5.6-9-7.4
		c-3.5-2.5-8.9-15.2-8.8-22.5c0-2.2-0.1-4.4-2.6-5.3c-2.9-1-4.8-3.1-6.8-5.2c-3.6-3.8-5.5-3.9-9.4-0.6c-3.6,3-6.9,3-10.4-0.1
		c-1.7-1.5-3.8-2.4-6.1-2.5c-3.8-0.4-7.6-0.2-11.3,0.7c-4.5,1-10.5,0.7-13.2,0.7c-3.7,0-7.7,0.6-9.9,4.5c2-0.1,4.2-0.4,5.8,1.5
		c1,1.2,2.5,5.2,2.1,6.6c-0.5,1.4-2,2.1-3.4,1.8c-1.4-0.3-6.1-2-9.8-0.8c-0.6,0.2-1.3,0.5-1.9,0.8c-4.1,2.1-6,1.5-8.2-2.3
		c-0.7-1.2-2.1-2.5-3.2-1.9c-3.5,2.2-6.8,0.3-10,0c-8.5-0.9-16.4-1.1-22.8,6.1c-2.1,2.4-5.2,3.9-7.9,5.5c-3.9,2.4-7.9,4.7-11.9,6.9
		c-2.2,1-3.5,3.3-3.4,5.7c0,4.9-0.4,9.8,0.4,14.7c0.3,1.8,0.1,3.3-2.3,2.8c-5.1-1.1-10.2-2.5-14.6-5.7c-3.2-2.2-5.2-5.7-5.3-9.6
		c-0.1-1.9-0.8-3.7-2.1-5.1c-3.3-4.1-6.7-8.1-8.1-13.5c-1.3-5.1-5.1-8.5-10.1-10.5c-6.4-2.5-8.2-1.9-11.6,4.1
		c-0.5,0.9-1.1,1.7-1.7,2.5c-0.6,0.9-1.7,1.2-2.7,0.7c-7-3.2-14.1-6.3-14-15.8c0.2-2.1-0.8-4.1-2.5-5.2c-4.3-2.5-7.1-6.4-9.9-10.3
		c-0.8-1.1-1.6-2.1-3.1-2.3c-3.9-0.5-7.7-1-11.6-1.5c-1-0.1-2.4-0.3-2.5,1c-0.4,4.4-3.3,3.5-6.1,3.2c-13.4-1.5-26.4-4.2-37.8-12.2
		c-4.9-3.5-18.2-13-21.4-13.3c-4.9-0.6-9.8-1-14.6-2c-2.3-0.5-3.5-1.6-3.5-4.1c0-5.1-1.4-9.5-6.8-11.5c-0.3-0.1-0.6-0.3-0.8-0.6
		c-1.7-4.3-6.2-5.9-8.8-9.2c-1.4-1.6-3.5-2.6-5.6-2.7c-3.2-0.2-3.8-2.1-2.9-4.6c1.1-3.2,0.4-6.1-1.2-9c-1.6-3-3.7-5.9-4.7-9.2
		c-0.5-1.8-1.3-3.7,0.3-5.4c1.2-1.3,0.9-2.2-0.1-3.4c-1.7-1.9-2.6-4.5-2.5-7.1c0.1-5.3-1.3-10.6-4.1-15.1c-1.6-2.7-2.2-5.3-1.3-8.3
		c0.5-1.5,0.7-3,1-4.6C21.7,132.1,19.1,127.3,19.1,126.6z"/>
</g>
</svg>
