<?xml version="1.0" encoding="utf-8"?>
<svg version="1.1" id="Layer_1" xmlns="http://www.w3.org/2000/svg" xmlns:xlink="http://www.w3.org/1999/xlink" x="0px" y="0px"
	 viewBox="0 0 500 530.5" xml:space="preserve">
<style type="text/css">
	.st0{fill:none;stroke:currentColor;stroke-width:4.5;stroke-linejoin:round;}
</style>
<title>Affiliation</title>
<line class="st0" x1="116.2" y1="236.4" x2="62.2" y2="322"/>
<line class="st0" x1="124.6" y1="237" x2="76.2" y2="310.8"/>
<path class="st0" d="M252.2,37.2c0,0,29.6,26.4,54.5,41.8s72.5,36.2,91.6,47s70.8,40.9,73.7,71.3l-45.8,67.6
	c-2.5,0.3-5.1,0.8-7.5,1.5c1.7,6.1,1.2,14.8-0.3,17.7s-16.2,17.7-16.2,17.7s-22.9-1.5-29.9,1.2v13.3c0,0-28.4,2-37.7-9.3
	s-18.5-26.7-54.2-34.5s-64.1-7.2-92.8-16.8s-40.9-20.6-71.6-19.1L252.2,37.2z"/>
<path class="st0" d="M87.2,282.4c-2-2.8-2.6-12.2-3.3-15.9s-5.9-4.4-8.9-18.5s10.9-19.4,10.9-19.4s9.6-5,19.6,4.8s8,6.7,8,6.7"/>
<path class="st0" d="M118.1,247c0,0,9.6,15,9.3,21.7s6.5,17.2,7.8,34.2s-1.5,24.8,3.5,34.4s25,39.6,25.2,48.5s-9.6,17.4-9.6,17.4
	s12,22,13.9,32.6s2,27.4,2,27.4l-14.4,4.3c0,0-16.1-41.5-21.8-45.9s-8-8.5-8.9-12.4s-6.1-6.3-6.1-6.3s-20.4,57-22.4,72.2
	c-14.8-2.6-21.1-4.4-22-9.4s15.2-107,15.2-107s-12.8-7-13.7-18c-5.9,6.5-13,9.4-14.8,9.1s-3-6.1-6.5-8.7s-6.5-5.4-6.7-7
	s31.1-25.5,31.1-25.5s4.6-5,4.6-10.9s4.6-17.2,7.6-20.9s7.4-8,16.8-8.7c9.3-0.7,21.8,12.4,22.6,14.4"/>
<path class="st0" d="M41.3,353.6c0,0-13.3,20.5-12,22s17.2-19.1,17.2-19.1"/>
<path class="st0" d="M76.6,469.7l-3,7.4c0,0-7.4-1.1-8.3-1.5s-5.9,0.9-8.9,2.6s-3.5,3.7-0.9,4.8s20.9,8.5,23.3,8.9s7.6,0.4,8.3-3.9
	s1.3-13.9,1.3-13.9"/>
<path class="st0" d="M167.3,464.3c0,0,8,17,7.8,20.7s-4.8,7.8-7,8s-29.8-3.9-31.5-5.9s-0.9-5.7,3.7-7.4s18.7,2,19.1-0.9
	s-2.1-11.3-2.1-11.3"/>
<path class="st0" d="M133.6,292.4c0.2-0.6,3.5-20.2,4.8-20.9s10.2,7.2,14.6,8.7s-17.4,34.4-17.4,34.4"/>
<path class="st0" d="M49.6,337c-1.3-0.8-3-0.9-4.3-0.2c-2.4,1.1-4.8,11.5-3.5,15s6.1,6.3,7.6,5.7s7.4-13.9,7.4-13.9"/>
</svg>
